<svg width="5" height="5" viewBox="0 0 5 5" fill="none" xmlns="http://www.w3.org/2000/svg">
<path d="M2.5 2.5C3.19036 2.5 3.75 1.94036 3.75 1.25C3.75 0.559644 3.19036 0 2.5 0C1.80964 0 1.25 0.559644 1.25 1.25C1.25 1.94036 1.80964 2.5 2.5 2.5ZM3.33333 1.25C3.33333 1.71024 2.96024 2.08333 2.5 2.08333C2.03976 2.08333 1.66667 1.71024 1.66667 1.25C1.66667 0.789763 2.03976 0.416667 2.5 0.416667C2.96024 0.416667 3.33333 0.789763 3.33333 1.25Z" fill="white"/>
<path d="M5 4.58333C5 5 4.58333 5 4.58333 5H0.416667C0.416667 5 0 5 0 4.58333C0 4.16667 0.416667 2.91667 2.5 2.91667C4.58333 2.91667 5 4.16667 5 4.58333ZM4.58332 4.58188C4.58273 4.47905 4.51926 4.17102 4.23662 3.88838C3.96484 3.6166 3.45379 3.33333 2.5 3.33333C1.5462 3.33333 1.03515 3.6166 0.763374 3.88838C0.480731 4.17102 0.41726 4.47905 0.416667 4.58188H4.58332Z" fill="white"/>
</svg>
