<svg width="4" height="4" viewBox="0 0 4 4" fill="none" xmlns="http://www.w3.org/2000/svg">
<path d="M0.88219 0.882144C0.947277 0.817056 1.0528 0.817056 1.11789 0.882144L2.00004 1.76429L2.88219 0.882144C2.94728 0.817056 3.0528 0.817056 3.11789 0.882144C3.18298 0.947231 3.18298 1.05276 3.11789 1.11785L2.23574 1.99999L3.11789 2.88214C3.18298 2.94723 3.18298 3.05276 3.11789 3.11785C3.0528 3.18293 2.94728 3.18293 2.88219 3.11785L2.00004 2.2357L1.11789 3.11785C1.0528 3.18293 0.947277 3.18293 0.88219 3.11785C0.817102 3.05276 0.817102 2.94723 0.88219 2.88214L1.76434 1.99999L0.88219 1.11785C0.817102 1.05276 0.817102 0.947231 0.88219 0.882144Z" fill="white"/>
</svg>
