<svg width="16" height="16" viewBox="0 0 16 16" fill="none" xmlns="http://www.w3.org/2000/svg">
<path d="M4.57143 1.5H3.71429C2.76751 1.5 2 2.39543 2 3.5V14C2 15.1046 2.76751 16 3.71429 16H12.2857C13.2325 16 14 15.1046 14 14V3.5C14 2.39543 13.2325 1.5 12.2857 1.5H11.4286V2.5H12.2857C12.7591 2.5 13.1429 2.94772 13.1429 3.5V14C13.1429 14.5523 12.7591 15 12.2857 15H3.71429C3.2409 15 2.85714 14.5523 2.85714 14V3.5C2.85714 2.94772 3.2409 2.5 3.71429 2.5H4.57143V1.5Z" fill="white"/>
<path d="M9.28571 1C9.52241 1 9.71429 1.22386 9.71429 1.5V2.5C9.71429 2.77614 9.52241 3 9.28571 3H6.71429C6.47759 3 6.28571 2.77614 6.28571 2.5V1.5C6.28571 1.22386 6.47759 1 6.71429 1H9.28571ZM6.71429 0C6.00421 0 5.42857 0.671573 5.42857 1.5V2.5C5.42857 3.32843 6.00421 4 6.71429 4H9.28571C9.99579 4 10.5714 3.32843 10.5714 2.5V1.5C10.5714 0.671573 9.99579 0 9.28571 0H6.71429Z" fill="white"/>
</svg>
