<svg width="6" height="6" viewBox="0 0 6 6" fill="none" xmlns="http://www.w3.org/2000/svg">
<path d="M2.25 1.6875C2.25 1.99816 1.99816 2.25 1.6875 2.25C1.37684 2.25 1.125 1.99816 1.125 1.6875C1.125 1.37684 1.37684 1.125 1.6875 1.125C1.99816 1.125 2.25 1.37684 2.25 1.6875ZM1.875 1.6875C1.875 1.58395 1.79105 1.5 1.6875 1.5C1.58395 1.5 1.5 1.58395 1.5 1.6875C1.5 1.79105 1.58395 1.875 1.6875 1.875C1.79105 1.875 1.875 1.79105 1.875 1.6875Z" fill="white"/>
<path d="M0.75 0.375H2.46967C2.56913 0.375 2.66451 0.414509 2.73483 0.484835L5.35984 3.10983C5.50628 3.25628 5.50628 3.49372 5.35983 3.64016L3.64016 5.35983C3.49372 5.50628 3.25628 5.50628 3.10983 5.35983L0.484835 2.73483C0.414509 2.66451 0.375 2.56913 0.375 2.46967V0.75C0.375 0.542893 0.542893 0.375 0.75 0.375ZM0.75 2.46967L3.375 5.09467L5.09467 3.375L2.46967 0.75L0.75 0.75L0.75 2.46967Z" fill="white"/>
</svg>
