<svg width="10" height="11" viewBox="0 0 10 11" fill="none" xmlns="http://www.w3.org/2000/svg">
<path d="M4.76329 1.05583V2.71489H1.62722C1.28081 2.71489 1 3.00215 1 3.3565V5.92294C1 6.27729 1.28081 6.56455 1.62721 6.56455H4.76329V10.4142H6.01772V6.56455H8.23281C8.41895 6.56455 8.59548 6.47998 8.71465 6.33369L9.92731 4.8451C10.0242 4.72613 10.0242 4.55332 9.92731 4.43435L8.71465 2.94575C8.59548 2.79947 8.41895 2.71489 8.23281 2.71489H6.01772V1.05583C6.01772 0.88566 5.95164 0.722464 5.83401 0.602138C5.58907 0.351574 5.19194 0.351574 4.947 0.602138C4.82937 0.722464 4.76329 0.88566 4.76329 1.05583ZM8.23281 3.3565L9.27817 4.63972L8.23281 5.92294H1.62721L1.62722 3.3565H8.23281Z" fill="#FF7474"/>
</svg>
