<svg width="6" height="6" viewBox="0 0 6 6" fill="none" xmlns="http://www.w3.org/2000/svg">
<path fill-rule="evenodd" clip-rule="evenodd" d="M3 0.75C3.10355 0.75 3.1875 0.833947 3.1875 0.9375V2.8125H5.0625C5.16605 2.8125 5.25 2.89645 5.25 3C5.25 3.10355 5.16605 3.1875 5.0625 3.1875H3.1875V5.0625C3.1875 5.16605 3.10355 5.25 3 5.25C2.89645 5.25 2.8125 5.16605 2.8125 5.0625V3.1875H0.9375C0.833947 3.1875 0.75 3.10355 0.75 3C0.75 2.89645 0.833947 2.8125 0.9375 2.8125H2.8125V0.9375C2.8125 0.833947 2.89645 0.75 3 0.75Z" fill="white"/>
</svg>
