<svg width="16" height="13" viewBox="0 0 16 13" fill="none" xmlns="http://www.w3.org/2000/svg">
<path d="M8.23529 0.0588235C8.08824 -0.0196078 7.91176 -0.0196078 7.76471 0.0588235L0.264706 4.05882C0.101774 4.14572 0 4.31534 0 4.5C0 4.68466 0.101774 4.85428 0.264706 4.94118L3.1875 6.5L0.264706 8.05882C0.101774 8.14572 0 8.31534 0 8.5C0 8.68466 0.101774 8.85428 0.264706 8.94118L7.76471 12.9412C7.91176 13.0196 8.08824 13.0196 8.23529 12.9412L15.7353 8.94118C15.8982 8.85428 16 8.68466 16 8.5C16 8.31534 15.8982 8.14572 15.7353 8.05882L12.8125 6.5L15.7353 4.94118C15.8982 4.85428 16 4.68466 16 4.5C16 4.31534 15.8982 4.14572 15.7353 4.05882L8.23529 0.0588235ZM8 7.93333L1.5625 4.5L8 1.06667L14.4375 4.5L8 7.93333Z" fill="white"/>
</svg>
