<svg width="4" height="5" viewBox="0 0 4 5" fill="none" xmlns="http://www.w3.org/2000/svg">
<path d="M1.23077 1.83333C1.31574 1.83333 1.38462 1.90795 1.38462 2V4C1.38462 4.09205 1.31574 4.16667 1.23077 4.16667C1.1458 4.16667 1.07692 4.09205 1.07692 4V2C1.07692 1.90795 1.1458 1.83333 1.23077 1.83333Z" fill="#FF7474"/>
<path d="M2 1.83333C2.08497 1.83333 2.15385 1.90795 2.15385 2V4C2.15385 4.09205 2.08497 4.16667 2 4.16667C1.91503 4.16667 1.84615 4.09205 1.84615 4V2C1.84615 1.90795 1.91503 1.83333 2 1.83333Z" fill="#FF7474"/>
<path d="M2.92308 2C2.92308 1.90795 2.8542 1.83333 2.76923 1.83333C2.68426 1.83333 2.61538 1.90795 2.61538 2V4C2.61538 4.09205 2.68426 4.16667 2.76923 4.16667C2.8542 4.16667 2.92308 4.09205 2.92308 4V2Z" fill="#FF7474"/>
<path fill-rule="evenodd" clip-rule="evenodd" d="M4 1C4 1.18409 3.86224 1.33333 3.69231 1.33333H3.53846V4.33333C3.53846 4.70152 3.26294 5 2.92308 5H1.07692C0.737056 5 0.461538 4.70152 0.461538 4.33333V1.33333H0.307692C0.137759 1.33333 0 1.18409 0 1V0.666667C0 0.482572 0.137759 0.333333 0.307692 0.333333H1.38462C1.38462 0.149238 1.52237 0 1.69231 0H2.30769C2.47763 0 2.61538 0.149238 2.61538 0.333333H3.69231C3.86224 0.333333 4 0.482572 4 0.666667V1ZM0.805549 1.33333L0.769231 1.35301V4.33333C0.769231 4.51743 0.906989 4.66667 1.07692 4.66667H2.92308C3.09301 4.66667 3.23077 4.51743 3.23077 4.33333V1.35301L3.19445 1.33333H0.805549ZM0.307692 1V0.666667H3.69231V1H0.307692Z" fill="#FF7474"/>
</svg>
